# xmcd
#
# Track frame offsets:
# 150
# 17941
# 38162
# 55178
# 76808
# 101750
# 121766
# 136288
# 158826
# 174552
# 196059
# 218073
# 233953
#
# Disc length: 3377 seconds
#
#
# Revision: 0
# Processed by: cddbd v1.5.2PL0 Copyright (c) Steve Scherf et al.
# Submitted via: FreeRIP 2.51 
#
DISCID=a50d2f0d
DTITLE=Albert Cummings - Working Man
DYEAR=2006
DGENRE=blues rock
TTITLE0=Workin' Man Blues
TTITLE1=Say You Love Me
TTITLE2=I Feel Good
TTITLE3=Girls To Shame
TTITLE4=Let Me Be
TTITLE5=Feeling End
TTITLE6=Party Right Here
TTITLE7=I'm Free
TTITLE8=First Day
TTITLE9=I'm On My Way
TTITLE10=Rumors
TTITLE11=Please
TTITLE12=Last Dance
EXTD=
EXTT0=
EXTT1=
EXTT2=
EXTT3=
EXTT4=
EXTT5=
EXTT6=
EXTT7=
EXTT8=
EXTT9=
EXTT10=
EXTT11=
EXTT12=
PLAYORDER=
